<svg xmlns="http://www.w3.org/2000/svg" xmlns:xlink="http://www.w3.org/1999/xlink" viewBox="0 -45 1920 1080">
  <defs>
    <style>
      .cls-1 {
        clip-path: url(#clip-Web_1920_1);
      }

      .cls-2, .cls-4 {
        fill: none;
      }

      .cls-2 {
        stroke: #0014ae;
        stroke-width: 20px;
      }

      .cls-3 {
        stroke: none;
      }

      .cls-5 {
        fill: #0019cb;
      }
    </style>
    <clipPath id="clip-Web_1920_1">
      <rect y="-45" width="1920" height="1080"/>
    </clipPath>
  </defs>
  <g id="Web_1920_1" data-name="Web 1920 – 1" class="cls-1">
    <rect class="cls-5" y="-45" width="1920" height="1080"/>
    <g id="Rectangle_1" data-name="Rectangle 1" class="cls-2" transform="translate(407 -754)">
      <rect class="cls-3" width="2151" height="1496" rx="748"/>
      <rect class="cls-4" x="10" y="10" width="2131" height="1476" rx="738"/>
    </g>
    <g id="Rectangle_3" data-name="Rectangle 3" class="cls-2" transform="translate(-214 200)">
      <rect class="cls-3" width="542" height="542" rx="271"/>
      <rect class="cls-4" x="10" y="10" width="522" height="522" rx="261"/>
    </g>
    <g id="Rectangle_4" data-name="Rectangle 4" class="cls-2" transform="translate(136 722)">
      <rect class="cls-3" width="542" height="542" rx="271"/>
      <rect class="cls-4" x="10" y="10" width="522" height="522" rx="261"/>
    </g>
    <g id="Rectangle_5" data-name="Rectangle 5" class="cls-2" transform="translate(1111 722)">
      <rect class="cls-3" width="542" height="542" rx="271"/>
      <rect class="cls-4" x="10" y="10" width="522" height="522" rx="261"/>
    </g>
    <g id="Rectangle_2" data-name="Rectangle 2" class="cls-2" transform="translate(-549 722)">
      <rect class="cls-3" width="2838" height="858" rx="429"/>
      <rect class="cls-4" x="10" y="10" width="2818" height="838" rx="419"/>
    </g>
    <path id="Path_1" data-name="Path 1" class="cls-2" d="M1217-72.493V736" transform="translate(-810 -14)"/>
    <path id="Path_3" data-name="Path 3" class="cls-2" d="M1217-72.493V736" transform="translate(385 -14)"/>
    <path id="Path_4" data-name="Path 4" class="cls-2" d="M1217-72.493V736" transform="translate(-73 -14)"/>
    <path id="Path_7" data-name="Path 7" class="cls-2" d="M1217-72.493V736" transform="translate(-303 794)"/>
    <path id="Path_2" data-name="Path 2" class="cls-2" d="M1217-72.493V736" transform="translate(-1160 -14)"/>
    <path id="Path_5" data-name="Path 5" class="cls-2" d="M1687.97-72.493v522" transform="translate(-1280.985 814.493)"/>
    <path id="Path_6" data-name="Path 6" class="cls-2" d="M1687.97-72.493v522" transform="translate(321.705 -323.87) rotate(45)"/>
  </g>
</svg>
